<svg xmlns="http://www.w3.org/2000/svg" viewBox="0 0 512 512" width="512" height="512">
  <defs>
    <linearGradient id="facet-top-l" x1="0%" y1="0%" x2="100%" y2="100%">
      <stop offset="0%" stop-color="#C8B3FE"/>
      <stop offset="100%" stop-color="#AC7AFE"/>
    </linearGradient>
    <linearGradient id="facet-top-r" x1="0%" y1="0%" x2="100%" y2="100%">
      <stop offset="0%" stop-color="#843FF4"/>
      <stop offset="100%" stop-color="#6F23E7"/>
    </linearGradient>
    <linearGradient id="facet-right-u" x1="0%" y1="0%" x2="100%" y2="100%">
      <stop offset="0%" stop-color="#7327EB"/>
      <stop offset="100%" stop-color="#5C16D6"/>
    </linearGradient>
    <linearGradient id="facet-right-d" x1="0%" y1="0%" x2="100%" y2="100%">
      <stop offset="0%" stop-color="#5111CA"/>
      <stop offset="100%" stop-color="#3A08A3"/>
    </linearGradient>
    <linearGradient id="facet-botr-u" x1="0%" y1="0%" x2="100%" y2="100%">
      <stop offset="0%" stop-color="#430BA8"/>
      <stop offset="100%" stop-color="#300586"/>
    </linearGradient>
    <linearGradient id="facet-botr-d" x1="0%" y1="0%" x2="100%" y2="100%">
      <stop offset="0%" stop-color="#5211C8"/>
      <stop offset="100%" stop-color="#3D09A5"/>
    </linearGradient>
    <linearGradient id="facet-botl-d" x1="0%" y1="0%" x2="100%" y2="100%">
      <stop offset="0%" stop-color="#691CDD"/>
      <stop offset="100%" stop-color="#4F0DBB"/>
    </linearGradient>
    <linearGradient id="facet-botl-u" x1="0%" y1="0%" x2="100%" y2="100%">
      <stop offset="0%" stop-color="#7C2CF0"/>
      <stop offset="100%" stop-color="#6117D2"/>
    </linearGradient>
    <linearGradient id="facet-left-d" x1="0%" y1="0%" x2="100%" y2="100%">
      <stop offset="0%" stop-color="#9754FD"/>
      <stop offset="100%" stop-color="#7A2EF1"/>
    </linearGradient>
    <linearGradient id="facet-left-u" x1="0%" y1="0%" x2="100%" y2="100%">
      <stop offset="0%" stop-color="#B583FF"/>
      <stop offset="100%" stop-color="#9C64FD"/>
    </linearGradient>
  </defs>

  <!-- 10 Facets of the 3D Star -->
  <polygon points="256,278 256,38 202,192" fill="url(#facet-top-l)"/>
  <polygon points="256,278 256,38 310,192" fill="url(#facet-top-r)"/>
  <polygon points="256,278 310,192 484,204" fill="url(#facet-right-u)"/>
  <polygon points="256,278 484,204 344,280" fill="url(#facet-right-d)"/>
  <polygon points="256,278 344,280 397,470" fill="url(#facet-botr-u)"/>
  <polygon points="256,278 397,470 256,362" fill="url(#facet-botr-d)"/>
  <polygon points="256,278 256,362 115,470" fill="url(#facet-botl-d)"/>
  <polygon points="256,278 115,470 168,280" fill="url(#facet-botl-u)"/>
  <polygon points="256,278 168,280 28,204" fill="url(#facet-left-d)"/>
  <polygon points="256,278 28,204 202,192" fill="url(#facet-left-u)"/>
</svg>
